<svg width="45" height="45" viewBox="0 0 45 45" fill="none" xmlns="http://www.w3.org/2000/svg">
<g clip-path="url(#clip0_13_511)">
<path d="M21.7217 17.1478L25.2443 24.2598L27.1067 23.3374L25.8706 25.5236L30.1164 34.0934C32.0851 30.9343 32.4191 26.8581 30.647 23.2789C28.8721 19.6982 25.4275 17.4979 21.7217 17.1478Z" fill="#364862"/>
<path d="M33.8855 12.2677C29.6653 11.088 25.2592 12.2172 21.6248 14.9764L34.3083 18.5226L35.1312 15.5378L35.9607 18.9845L43.0048 20.9546C41.3039 16.7035 38.1057 13.4473 33.8855 12.2677Z" fill="#364862"/>
<path d="M27.1066 9.74145L25.2254 7.23147L28.8114 8.46492L31.3902 6.53326L29.5089 4.02258L33.0936 5.25674L38.449 1.24321C34.4712 -0.704004 29.5696 -0.405088 25.7816 2.43281C21.9937 5.27071 20.3306 9.89227 21.082 14.258L27.1066 9.74145Z" fill="#364862"/>
<path d="M10.9639 5.73267L9.37356 8.06362L19.4569 14.9461C19.8784 10.9379 18.0362 6.73998 14.3331 4.21172C10.6272 1.68284 6.04611 1.49766 2.46826 3.35127L7.70786 6.92719L10.9639 5.73267Z" fill="#364862"/>
<path d="M11.1711 16.1318L12.0639 18.0433L18.6218 14.9784C15.6377 12.8037 11.594 12.2758 8.012 13.9483C4.43011 15.6234 2.24049 19.0647 1.99536 22.7483L6.03921 20.8577L6.38532 18.7012L7.15023 20.3393L10.7685 18.6486L11.1711 16.1318Z" fill="#364862"/>
<path d="M22.247 35.646C19.9712 26.1753 20.9314 17.7565 21.5023 15.746L19.9281 15.2518C16.2398 21.679 16.2169 30.207 16.734 35.7732C12.6995 36.9993 9.71414 40.627 9.4314 44.9933C9.47042 44.9953 9.5054 45 9.54715 45C11.2493 45 11.2493 43.4084 12.9513 43.4084C14.6534 43.4084 14.6534 45 16.3569 45C18.059 45 18.059 43.4084 19.7611 43.4084C21.4645 43.4084 21.4645 45 23.1666 45C24.8687 45 24.8687 43.4084 26.5708 43.4084C28.2729 43.4084 28.2729 45 29.9736 45C30.0006 45 30.0221 44.9967 30.0477 44.9953C29.7542 40.4519 26.5304 36.7165 22.247 35.646Z" fill="#364862"/>
</g>
<defs>
<clipPath id="clip0_13_511">
<rect width="45" height="45" fill="white"/>
</clipPath>
</defs>
</svg>
