<svg width="36" height="36" viewBox="0 0 36 36" fill="none" xmlns="http://www.w3.org/2000/svg">
<path d="M33.2226 13.6125V9.21095L21.8144 2.62267L18.021 0.432434L18.0175 0.439465V3.88478L18.014 4.82696V7.40392L18.0105 10.9371V13.6125V14.4352V17.9859L21.7722 20.1656L21.8039 20.1832L33.2156 26.7926L33.2226 26.7891V22.4016L21.8144 15.8098V7.02071L33.2226 13.6125Z" fill="white"/>
<path d="M21.8039 20.1832L21.7723 20.1656L18.0105 17.986V17.9965H18.007L14.1961 20.1973H14.1926L6.61641 24.5707L2.77734 26.7891L6.5707 28.9793L18 35.5781L21.8109 33.3774L10.3957 26.761L17.9613 22.377L29.4082 28.9864L29.4117 28.9899L33.2156 26.7926L21.8039 20.1832Z" fill="white" fill-opacity="0.7"/>
<path d="M18 0.421875L14.1961 2.61914L6.58477 7.01367L2.77734 9.21094V12.716V16.2316V19.7473V23.2629V26.7891L6.61992 24.5707L6.59531 24.5566H6.58477V21.0586V17.5465L8.1 16.6711L8.10703 16.6816L11.127 18.4254L14.1961 20.1973L18.007 17.9965H18.0105V17.9859L14.9484 16.2105L14.1961 15.7746L11.9355 14.4668L11.9285 14.4563L14.1926 13.1449L18.0105 10.9371L18.0141 7.40391V4.82695V3.88828V0.442969L18.0176 0.435937L18 0.421875ZM14.1961 9.61523L6.58477 14.0273V10.5117L14.1961 6.09961V9.61523Z" fill="white" fill-opacity="0.8"/>
</svg>
